<?xml version="1.0" encoding="UTF-8"?>
<svg version="1.1" xmlns="http://www.w3.org/2000/svg" width="351" height="369">
<path d="M0 0 C1.19005098 0.0023229 1.19005098 0.0023229 2.40414339 0.00469273 C3.24071492 0.00242718 4.07728645 0.00016162 4.93920863 -0.00217259 C7.76445309 -0.00854244 10.58964995 -0.00768133 13.41490084 -0.00685817 C15.43148269 -0.0098478 17.44806397 -0.01324987 19.46464449 -0.01703578 C24.95834906 -0.02589982 30.45203808 -0.0282149 35.9457491 -0.02885157 C40.52358709 -0.02979862 45.10142141 -0.03347454 49.67925799 -0.03702366 C60.47476711 -0.04517731 71.2702679 -0.04760706 82.06577975 -0.04689723 C93.22146419 -0.04629614 104.37710033 -0.05685206 115.53277254 -0.0726409 C125.09368132 -0.08569305 134.65457426 -0.09108211 144.21549189 -0.09044182 C149.93324361 -0.09018616 155.65095243 -0.09307499 161.36869532 -0.10361987 C166.74400283 -0.1132619 172.11922608 -0.11340698 177.49453646 -0.10610324 C179.47230628 -0.10505254 181.45008124 -0.10744883 183.4278422 -0.1134637 C186.11812292 -0.12111833 188.80810787 -0.11658256 191.49838167 -0.10883266 C192.68508657 -0.116548 192.68508657 -0.116548 193.8957653 -0.12441921 C199.28648315 -0.08986571 199.28648315 -0.08986571 201.51475435 2.1384055 C201.7084184 5.12190644 201.77507862 8.01229442 201.75526339 10.99671239 C201.75697224 11.92538762 201.75868109 12.85406286 201.76044172 13.81087977 C201.76375203 16.94177914 201.75270763 20.07246708 201.74180514 23.20334691 C201.74124135 25.44006662 201.74155693 27.67678671 201.74269015 29.91350621 C201.74326595 36.00206873 201.73147487 42.09055307 201.71754223 48.17909735 C201.70507273 54.53592126 201.70386737 60.89274679 201.70149142 67.24958104 C201.69597367 77.92445204 201.68346586 88.59929203 201.66563326 99.27414769 C201.64728255 110.27056549 201.6331221 121.26697548 201.62461764 132.2634055 C201.62409219 132.94092805 201.62356674 133.6184506 201.62302537 134.31650414 C201.62041535 137.71534699 201.61788792 141.1141899 201.61540157 144.51303285 C201.59465932 172.72151044 201.55927688 200.92995619 201.51475435 229.1384055 C196.71718973 231.0378189 192.40013074 231.42058875 187.30329806 231.38564366 C186.08702658 231.38926528 186.08702658 231.38926528 184.84618396 231.39296007 C182.13780568 231.39858156 179.42966489 231.38994573 176.72129732 231.38132542 C174.77618763 231.38239868 172.83107824 231.384338 170.88597018 231.38707799 C165.60933404 231.39192193 160.33278259 231.38427663 155.05615669 231.37412494 C149.53536838 231.36533862 144.01458266 231.36710199 138.49378878 231.3674857 C129.22488399 231.36654943 119.95601196 231.35786963 110.68711764 231.34421605 C99.96592894 231.32848168 89.24477609 231.32321829 78.52357668 231.3239516 C68.21326923 231.3245616 57.90297348 231.3194593 47.59266955 231.31115979 C43.20280402 231.30762645 38.81294262 231.30579647 34.42307574 231.30526608 C29.25700731 231.30426271 24.09096907 231.29816652 18.9249106 231.28809994 C17.02699505 231.28517549 15.12907603 231.28394947 13.23115832 231.28452748 C10.64482109 231.28501715 8.05856878 231.27937253 5.47224337 231.27211827 C4.71757969 231.27366687 3.96291601 231.27521547 3.18538374 231.276811 C-0.21219895 231.2610247 -3.21658477 231.04331992 -6.48524565 230.1384055 C-6.50803577 200.98218273 -6.52574369 171.82596083 -6.53631097 142.66973094 C-6.53756175 139.23114783 -6.53885607 135.79256475 -6.54017729 132.35398167 C-6.5404396 131.6693932 -6.54070191 130.98480473 -6.54097217 130.27947115 C-6.54532891 119.18035132 -6.55321647 108.08123664 -6.56239844 96.98211987 C-6.57173487 85.60176023 -6.57722633 74.22140443 -6.57933414 62.84104073 C-6.58064168 56.44535597 -6.58373024 50.04968291 -6.5909757 43.65400189 C-6.59773193 37.64181145 -6.59986342 31.62963762 -6.59835333 25.61744374 C-6.59862983 23.40382168 -6.6006373 21.19019911 -6.60445112 18.97658032 C-6.60938217 15.96849459 -6.60824612 12.96047263 -6.60550016 9.9523856 C-6.608413 9.06427129 -6.61132584 8.17615697 -6.61432695 7.26113009 C-6.59632242 0.02975362 -6.59632242 0.02975362 0 0 Z M13.51475435 21.1384055 C13.51475435 83.5084055 13.51475435 145.8784055 13.51475435 210.1384055 C68.95475435 210.1384055 124.39475435 210.1384055 181.51475435 210.1384055 C181.51475435 147.7684055 181.51475435 85.3984055 181.51475435 21.1384055 C126.07475435 21.1384055 70.63475435 21.1384055 13.51475435 21.1384055 Z " fill="#031F71" transform="translate(76.48524564504623,66.8615944981575)"/>
<path d="M0 0 C0.95682112 0.00184359 1.91364223 0.00368717 2.89945793 0.00558662 C3.99604729 0.0028373 5.09263664 0.00008797 6.22245598 -0.00274467 C8.03506416 0.00804115 8.03506416 0.00804115 9.8842907 0.01904488 C11.78667503 0.0186068 11.78667503 0.0186068 13.72749138 0.01815987 C17.21078924 0.01758469 20.69395011 0.02936559 24.17721605 0.04330778 C27.81539692 0.0557877 31.45358074 0.05698347 35.09177971 0.0593586 C41.98369072 0.06558144 48.87553848 0.0820031 55.7674216 0.10205758 C63.61253352 0.1243916 71.45764842 0.13540371 79.3027842 0.14544845 C95.44310858 0.16636866 111.58336931 0.20156021 127.72364616 0.24609566 C131.16135327 6.71361745 130.06960539 14.21719746 128.72364616 21.24609566 C127.72364616 22.24609566 127.72364616 22.24609566 125.8670702 22.36914349 C125.04943982 22.36822169 124.23180944 22.3672999 123.38940239 22.36635017 C122.45405663 22.36772484 121.51871086 22.3690995 120.55502129 22.37051582 C119.52068459 22.36692055 118.48634789 22.36332527 117.42066765 22.35962105 C116.33787529 22.35976707 115.25508293 22.3599131 114.13947868 22.36006355 C110.54121242 22.35936389 106.94299719 22.35156899 103.34473991 22.34375191 C100.85752198 22.34188792 98.37030368 22.34046393 95.88308525 22.33946419 C89.99343426 22.33602916 84.10380226 22.32813843 78.21415907 22.3181147 C69.67825634 22.30390138 61.14234736 22.29864303 52.60643578 22.2923069 C40.6454906 22.28259426 28.68459368 22.26343874 16.72364616 22.24609566 C16.72364616 41.71609566 16.72364616 61.18609566 16.72364616 81.24609566 C22.6314196 81.30668159 28.53919304 81.36726753 34.62598991 81.42968941 C38.35841947 81.47016236 42.09084133 81.51092463 45.82325554 81.55273628 C51.75348681 81.61914076 57.68371649 81.6844469 63.61402702 81.74341011 C68.39268687 81.79098962 73.17127258 81.84332984 77.94984436 81.89903641 C79.77716105 81.91948912 81.6044981 81.93819727 83.43185043 81.95516968 C85.98223451 81.9791494 88.53247714 82.0092123 91.08277702 82.04077339 C91.84594231 82.04652885 92.60910759 82.05228432 93.39539909 82.05821419 C98.609594 82.1320435 98.609594 82.1320435 99.72364616 83.24609566 C99.82224748 84.64958301 99.85443553 86.05790043 99.85645866 87.46484566 C99.85774773 88.31433784 99.85903679 89.16383003 99.86036491 90.03906441 C99.85649773 90.93238472 99.85263054 91.82570503 99.84864616 92.74609566 C99.85251335 93.63941597 99.85638054 94.53273628 99.86036491 95.45312691 C99.85907585 96.30261909 99.85778679 97.15211128 99.85645866 98.02734566 C99.85533073 98.81174019 99.8542028 99.59613472 99.8530407 100.40429878 C99.72364616 102.24609566 99.72364616 102.24609566 98.72364616 103.24609566 C95.55751954 103.34145807 92.41323989 103.37160202 89.24683952 103.35962105 C87.75432419 103.35984009 87.75432419 103.35984009 86.23165703 103.36006355 C82.92557954 103.35936397 79.61955762 103.35156945 76.31348991 103.34375191 C74.02805423 103.34188789 71.74261815 103.34046391 69.45718193 103.33946419 C63.42866229 103.33563773 57.40016657 103.32580636 51.37165642 103.31476021 C45.22531775 103.30454883 39.07897524 103.29996716 32.93263054 103.29492378 C20.86295854 103.2841842 8.79330434 103.26710625 -3.27635384 103.24609566 C-3.45311432 90.112005 -3.61908385 76.97782715 -3.77112961 63.84342575 C-3.8420665 57.74514445 -3.91677435 51.64695717 -3.99998665 45.54883003 C-4.08009633 39.6680457 -4.15044893 33.78721941 -4.21392632 27.90623283 C-4.23992688 25.65822584 -4.26949284 23.41025727 -4.30261803 21.16234398 C-4.34827894 18.02313196 -4.3814643 14.88402466 -4.41160774 11.74463081 C-4.42814903 10.80739677 -4.44469032 9.87016273 -4.46173286 8.90452766 C-4.46739769 8.05194878 -4.47306252 7.19936989 -4.478899 6.32095528 C-4.48811693 5.57799013 -4.49733486 4.83502499 -4.50683212 4.06954575 C-4.12991613 1.08754035 -2.88330125 0.31171249 0 0 Z " fill="#021F6F" transform="translate(111.27635383605957,105.75390434265137)"/>
<path d="M0 0 C1.44643387 -0.00262848 1.44643387 -0.00262848 2.92208862 -0.00531006 C6.12052186 -0.00972386 9.31890015 -0.00679245 12.51733398 -0.00341797 C14.73168448 -0.00409109 16.94603489 -0.00506118 19.16038513 -0.00631714 C23.80500999 -0.00779343 28.44961565 -0.00564155 33.09423828 -0.00097656 C39.06231748 0.004724 45.03035175 0.0014392 50.9984293 -0.00454903 C55.57159263 -0.00815366 60.14474521 -0.00701656 64.71790886 -0.00442123 C66.91924991 -0.00375187 69.12059191 -0.00458073 71.32193184 -0.00690079 C74.39173105 -0.00942607 77.46145633 -0.00558863 80.53125 0 C81.45023575 -0.00202423 82.3692215 -0.00404846 83.3160553 -0.00613403 C89.58666474 0.01513154 89.58666474 0.01513154 90.70092773 1.12939453 C90.79626427 4.23446703 90.826439 7.31725911 90.81445312 10.42260742 C90.81459915 11.3981105 90.81474518 12.37361359 90.81489563 13.37867737 C90.81419607 16.61982406 90.80640164 19.86091407 90.79858398 23.10205078 C90.79671996 25.34264596 90.79529598 27.58324155 90.79429626 29.82383728 C90.79046986 35.73398963 90.78063854 41.64411758 90.76959229 47.55426025 C90.75938079 53.5799527 90.75479921 59.60564906 90.74975586 65.63134766 C90.73901638 77.46404069 90.72193849 89.29671559 90.70092773 101.12939453 C88.17555146 102.39208267 86.44193578 102.25524348 83.61450195 102.25637817 C82.53763123 102.259198 81.4607605 102.26201782 80.35125732 102.2649231 C79.16469543 102.26289886 77.97813354 102.26087463 76.75561523 102.25878906 C75.51007874 102.26054138 74.26454224 102.2622937 72.98126221 102.26409912 C69.55984667 102.26775375 66.13849136 102.26688646 62.71707916 102.26372004 C59.14121925 102.26119322 55.56536196 102.26353487 51.98950195 102.2651062 C45.98380062 102.26692695 39.97811158 102.26452405 33.97241211 102.25976562 C27.02303266 102.25432318 20.07368255 102.25608591 13.12430382 102.26159203 C7.16419409 102.26612584 1.20409321 102.26677239 -4.75601768 102.26415336 C-8.31857153 102.26259207 -11.88111158 102.2623928 -15.44366455 102.26568985 C-19.41370795 102.26910718 -23.38371832 102.26437443 -27.35375977 102.25878906 C-28.54032166 102.26081329 -29.72688354 102.26283752 -30.94940186 102.2649231 C-32.02627258 102.26210327 -33.10314331 102.25928345 -34.21264648 102.25637817 C-35.62185867 102.25581264 -35.62185867 102.25581264 -37.05953979 102.25523567 C-39.29907227 102.12939453 -39.29907227 102.12939453 -41.29907227 101.12939453 C-41.29907227 94.52939453 -41.29907227 87.92939453 -41.29907227 81.12939453 C-4.33907227 81.12939453 32.62092773 81.12939453 70.70092773 81.12939453 C70.70092773 61.32939453 70.70092773 41.52939453 70.70092773 21.12939453 C43.64092773 21.12939453 16.58092773 21.12939453 -11.29907227 21.12939453 C-11.29907227 14.52939453 -11.29907227 7.92939453 -11.29907227 1.12939453 C-7.83240242 -0.60394039 -3.81578535 -0.00842351 0 0 Z " fill="#021F6F" transform="translate(149.299072265625,158.87060546875)"/>
<path d="M0 0 C1.91817787 -0.00639748 1.91817787 -0.00639748 3.87510681 -0.01292419 C5.30668643 -0.01257456 6.73826603 -0.01211297 8.16984558 -0.0115509 C9.66821375 -0.01454164 11.16658114 -0.01794397 12.66494751 -0.02172852 C16.75808812 -0.030607 20.85120785 -0.03290895 24.94435716 -0.0335443 C27.51675714 -0.03425557 30.08915185 -0.03639193 32.66155052 -0.03904152 C41.68319915 -0.04832543 50.70483297 -0.05237484 59.72648621 -0.05158997 C68.04813192 -0.05099653 76.36971125 -0.06139353 84.69134027 -0.07733363 C91.88422337 -0.0906044 99.07708543 -0.09576548 106.26998061 -0.09513456 C110.54235412 -0.09488409 114.8146694 -0.0974727 119.08703041 -0.10831261 C142.16780403 -0.16289629 165.09259367 0.59940383 188.123703 2.13371277 C188.123703 2.46371277 188.123703 2.79371277 188.123703 3.13371277 C124.763703 3.46371277 61.403703 3.79371277 -3.876297 4.13371277 C-3.876297 77.72371277 -3.876297 151.31371277 -3.876297 227.13371277 C63.773703 227.46371277 131.423703 227.79371277 201.123703 228.13371277 C200.793703 228.79371277 200.463703 229.45371277 200.123703 230.13371277 C195.8420158 231.41826797 191.46229278 231.27381742 187.03250122 231.26069641 C186.22250799 231.2622564 185.41251476 231.26381639 184.57797629 231.26542366 C181.86655609 231.26940911 179.15519197 231.26625351 176.44377136 231.2631073 C174.49880948 231.26446242 172.55384786 231.26624297 170.60888672 231.26841736 C165.32808451 231.27297823 160.04730183 231.27120772 154.76649928 231.26803827 C149.2430343 231.2655081 143.719571 231.26785401 138.19610596 231.26942444 C128.92123616 231.27124405 119.64637433 231.2688451 110.37150574 231.26408386 C99.64295531 231.25864004 88.91442389 231.26040561 78.18587393 231.26591027 C68.9789911 231.27044539 59.77211401 231.27109003 50.56523043 231.2684716 C45.064347 231.26691124 39.5634725 231.26670853 34.06258965 231.27000809 C28.89243491 231.27289263 23.72230472 231.27090031 18.55215263 231.26511383 C16.65262391 231.26378945 14.75309313 231.26417492 12.85356522 231.2663765 C10.26498912 231.26910052 7.67649217 231.26569144 5.08792114 231.26069641 C3.95490245 231.26404249 3.95490245 231.26404249 2.79899448 231.26745617 C-0.60100236 231.25469139 -3.60543635 231.03964653 -6.876297 230.13371277 C-6.89908712 200.97749 -6.91679505 171.82126809 -6.92736233 142.6650382 C-6.9286131 139.2264551 -6.92990742 135.78787202 -6.93122864 132.34928894 C-6.93149095 131.66470047 -6.93175326 130.980112 -6.93202352 130.27477842 C-6.93638026 119.17565858 -6.94426783 108.0765439 -6.95344979 96.97742713 C-6.96278622 85.5970675 -6.96827768 74.2167117 -6.97038549 62.836348 C-6.97169303 56.44066323 -6.97478159 50.04499018 -6.98202705 43.64930916 C-6.98878328 37.63711872 -6.99091477 31.62494488 -6.98940468 25.61275101 C-6.98968119 23.39912895 -6.99168865 21.18550638 -6.99550247 18.97188759 C-7.00043352 15.96380186 -6.99929747 12.95577989 -6.99655151 9.94769287 C-6.99946436 9.05957855 -7.0023772 8.17146423 -7.00537831 7.25643736 C-6.98801882 0.28414044 -6.89017326 0.01033306 0 0 Z " fill="#031661" transform="translate(76.87629699707031,66.86628723144531)"/>
<path d="M0 0 C56.43 0 112.86 0 171 0 C171 1.65 171 3.3 171 5 C170.67 4.01 170.34 3.02 170 2 C114.56 2 59.12 2 2 2 C2 64.04 2 126.08 2 190 C1.01 190.33 0.02 190.66 -1 191 C-1.02333183 166.39200386 -1.04098058 141.78400937 -1.05181217 117.17600441 C-1.05697452 105.75079606 -1.06401607 94.32559457 -1.07543945 82.90039062 C-1.08538814 72.94539554 -1.09185387 62.99040543 -1.09408849 53.03540552 C-1.09539528 47.76142727 -1.09847916 42.48746324 -1.10573006 37.21348953 C-1.11249317 32.25435043 -1.11461636 27.29523146 -1.11310768 22.33608818 C-1.11338388 20.51151228 -1.11538728 18.68693574 -1.11920547 16.86236382 C-1.12414725 14.38011072 -1.12299647 11.89793464 -1.12025452 9.41567993 C-1.12316736 8.68611639 -1.1260802 7.95655284 -1.12908131 7.20488131 C-1.11412121 2.22824242 -1.11412121 2.22824242 0 0 Z " fill="#031655" transform="translate(88,86)"/>
<path d="M0 0 C1.34673955 0.00276538 1.34673955 0.00276538 2.72068596 0.00558662 C3.74996208 0.0028373 4.7792382 0.00008797 5.83970451 -0.00274467 C6.97330406 0.00444588 8.10690361 0.01163643 9.27485466 0.01904488 C10.46508232 0.01875282 11.65530998 0.01846077 12.88160515 0.01815987 C16.15004555 0.01931651 19.41831588 0.02936408 22.68672228 0.04330778 C26.10068495 0.0557893 29.51465077 0.0569836 32.92863274 0.0593586 C39.39555414 0.06558097 45.86240812 0.08200198 52.32929981 0.10205758 C59.6907444 0.12439306 67.05219217 0.13540408 74.4136622 0.14544845 C89.55867411 0.16636759 104.70362288 0.20155822 119.84858513 0.24609566 C119.18858513 1.23609566 118.52858513 2.22609566 117.84858513 3.24609566 C115.74402237 3.61523914 115.74402237 3.61523914 113.0903759 3.60685921 C112.08634224 3.6109832 111.08230858 3.61510719 110.04784966 3.61935616 C108.94230232 3.60857033 107.83675499 3.5977845 106.69770622 3.58667183 C105.53673927 3.58710991 104.37577232 3.58754799 103.17962456 3.58799934 C99.32692185 3.58590266 95.47464969 3.5625296 91.62202263 3.53906441 C88.95686416 3.53347158 86.29172982 3.52905251 83.62656975 3.52620125 C77.31897787 3.51686791 71.01154154 3.49223687 64.70401824 3.46215278 C56.81994537 3.42536358 48.93584737 3.40891671 41.05171013 3.39258003 C26.98388055 3.36334002 12.9163905 3.30324744 -1.15141487 3.24609566 C-1.15141487 35.58609566 -1.15141487 67.92609566 -1.15141487 101.24609566 C31.84858513 101.24609566 64.84858513 101.24609566 98.84858513 101.24609566 C98.84858513 98.93609566 98.84858513 96.62609566 98.84858513 94.24609566 C99.17858513 94.24609566 99.50858513 94.24609566 99.84858513 94.24609566 C99.94624138 100.39843941 99.94624138 100.39843941 99.84858513 102.24609566 C97.88430146 104.21037933 94.86561349 103.36633483 92.25111198 103.37051582 C91.30093193 103.36692055 90.35075188 103.36332527 89.37177849 103.35962105 C87.87926315 103.35984009 87.87926315 103.35984009 86.35659599 103.36006355 C83.05051851 103.35936397 79.74449658 103.35156945 76.43842888 103.34375191 C74.1529932 103.34188789 71.86755712 103.34046391 69.5821209 103.33946419 C63.55360126 103.33563773 57.52510554 103.32580636 51.49659538 103.31476021 C45.35025672 103.30454883 39.2039142 103.29996716 33.0575695 103.29492378 C20.98789751 103.2841842 8.9182433 103.26710625 -3.15141487 103.24609566 C-3.32817535 90.112005 -3.49414489 76.97782715 -3.64619064 63.84342575 C-3.71712754 57.74514445 -3.79183539 51.64695717 -3.87504768 45.54883003 C-3.95515736 39.6680457 -4.02550997 33.78721941 -4.08898735 27.90623283 C-4.11498791 25.65822584 -4.14455388 23.41025727 -4.17767906 21.16234398 C-4.22333997 18.02313196 -4.25652533 14.88402466 -4.28666878 11.74463081 C-4.30321007 10.80739677 -4.31975136 9.87016273 -4.3367939 8.90452766 C-4.34245872 8.05194878 -4.34812355 7.19936989 -4.35396004 6.32095528 C-4.36317797 5.57799013 -4.3723959 4.83502499 -4.38189316 4.06954575 C-4.01588906 1.17387076 -2.82140653 0.32273454 0 0 Z " fill="#000959" transform="translate(111.15141487121582,105.75390434265137)"/>
<path d="M0 0 C6.65686814 -0.0505916 13.31368694 -0.0856876 19.97070312 -0.10986328 C22.23667249 -0.11993859 24.50262881 -0.13359918 26.76855469 -0.15087891 C30.02021501 -0.17506011 33.27170387 -0.18646763 36.5234375 -0.1953125 C38.05005508 -0.21079636 38.05005508 -0.21079636 39.60751343 -0.22659302 C40.54833771 -0.22674408 41.48916199 -0.22689514 42.45849609 -0.22705078 C43.28900482 -0.231492 44.11951355 -0.23593323 44.97518921 -0.24050903 C47 0 47 0 49 2 C49.19364892 4.97097894 49.260329 7.8484492 49.24050903 10.82034302 C49.24221788 11.7449347 49.24392673 12.66952638 49.24568737 13.622136 C49.24899763 16.73921618 49.23795335 19.85608398 49.22705078 22.97314453 C49.226487 25.20001216 49.22680258 27.42688015 49.22793579 29.65374756 C49.22851159 35.71545157 49.21672057 41.77707706 49.20278788 47.83876276 C49.19031831 54.16755943 49.18911301 60.49635773 49.18673706 66.82516479 C49.18121933 77.45295741 49.16871155 88.08071888 49.15087891 98.70849609 C49.13252816 109.65641129 49.11836772 120.60431863 49.10986328 131.55224609 C49.10907511 132.56404942 49.10907511 132.56404942 49.10827102 133.59629323 C49.10566099 136.98015201 49.10313356 140.36401085 49.10064721 143.74786973 C49.079905 171.83193328 49.0445226 199.91596485 49 228 C48.01 228 47.02 228 46 228 C46 153.75 46 79.5 46 3 C37.09 2.67 28.18 2.34 19 2 C12.66486574 1.6814737 6.33234151 1.3625092 0 1 C0 0.67 0 0.34 0 0 Z " fill="#071268" transform="translate(229,67)"/>
<path d="M0 0 C68.64 0 137.28 0 208 0 C207.67 0.66 207.34 1.32 207 2 C202.7183128 3.2845552 198.33858978 3.14010465 193.90879822 3.12698364 C193.09880499 3.12854363 192.28881176 3.13010362 191.45427328 3.13171089 C188.74285308 3.13569634 186.03148897 3.13254075 183.32006836 3.12939453 C181.37510648 3.13074965 179.43014485 3.1325302 177.48518372 3.13470459 C172.20438151 3.13926546 166.92359883 3.13749495 161.64279628 3.1343255 C156.1193313 3.13179534 150.595868 3.13414125 145.07240295 3.13571167 C135.79753316 3.13753129 126.52267132 3.13513233 117.24780273 3.13037109 C106.51925231 3.12492727 95.79072089 3.12669284 85.06217092 3.1321975 C75.8552881 3.13673262 66.648411 3.13737726 57.44152743 3.13475883 C51.940644 3.13319847 46.4397695 3.13299576 40.93888664 3.13629532 C35.7687319 3.13917986 30.59860171 3.13718754 25.42844963 3.13140106 C23.52892091 3.13007668 21.62939012 3.13046215 19.72986221 3.13266373 C17.14128611 3.13538775 14.55278917 3.13197867 11.96421814 3.12698364 C10.83119944 3.13032973 10.83119944 3.13032973 9.67529148 3.13374341 C6.30990196 3.12110855 3.21696192 3.05372873 0 2 C0 1.34 0 0.68 0 0 Z " fill="#000C52" transform="translate(70,295)"/>
<path d="M0 0 C0.33 0 0.66 0 1 0 C1.02332603 24.88603451 1.04097771 49.77206739 1.05181217 74.65811062 C1.05697576 86.212263 1.06401965 97.76640861 1.07543945 109.32055664 C1.08538437 119.38724349 1.09185297 129.45392544 1.09408849 139.52061707 C1.09539593 144.85436711 1.09848384 150.18810312 1.10573006 155.52184868 C1.11248725 160.53597659 1.11461758 165.55008459 1.11310768 170.56421661 C1.11338415 172.41017579 1.11539104 174.25613558 1.11920547 176.10209084 C1.12413803 178.6109678 1.12299992 181.11976833 1.12025452 183.62864685 C1.12462378 184.73903428 1.12462378 184.73903428 1.12908131 185.87185377 C1.11412121 190.88587879 1.11412121 190.88587879 0 192 C-2.18959038 192.09698498 -4.3823753 192.12186727 -6.57411194 192.12025452 C-7.26917026 192.12110894 -7.96422859 192.12196337 -8.68034929 192.12284368 C-11.02658986 192.12450049 -13.37276008 192.11897387 -15.71899414 192.11352539 C-17.39399718 192.11324354 -19.06900033 192.11340122 -20.7440033 192.1139679 C-25.30579279 192.11425594 -29.86755623 192.10835814 -34.42933965 192.10139394 C-39.19129 192.09516151 -43.9532409 192.09455669 -48.7151947 192.09336853 C-57.73915566 192.09025489 -66.76310456 192.08204106 -75.7870602 192.07201904 C-86.05774487 192.06085893 -96.32843009 192.05534771 -106.59911931 192.05032361 C-127.73275294 192.03985847 -148.86637571 192.02225839 -170 192 C-170 191.34 -170 190.68 -170 190 C-114.56 190 -59.12 190 -2 190 C-2 188.35 -2 186.7 -2 185 C-1.67 185 -1.34 185 -1 185 C-0.67 123.95 -0.34 62.9 0 0 Z " fill="#00084D" transform="translate(260,87)"/>
<path d="M0 0 C0.83575058 -0.00137466 1.67150116 -0.00274933 2.53257751 -0.00416565 C3.91037636 0.00122726 3.91037636 0.00122726 5.31600952 0.00672913 C6.28190506 0.0065831 7.2478006 0.00643707 8.2429657 0.00628662 C11.44620992 0.00698514 14.64939651 0.01477474 17.85263062 0.02259827 C20.0693763 0.02446266 22.2861224 0.02588646 24.50286865 0.02688599 C30.34560274 0.03070948 36.18831208 0.04053834 42.03103638 0.05158997 C47.98979355 0.0618077 53.94855471 0.06638438 59.90731812 0.07142639 C71.60524567 0.08216074 83.30315484 0.09923516 95.00106812 0.12025452 C95.49606812 1.60525452 95.49606812 1.60525452 96.00106812 3.12025452 C63.00106812 3.12025452 30.00106812 3.12025452 -3.99893188 3.12025452 C-3.99893188 8.73025452 -3.99893188 14.34025452 -3.99893188 20.12025452 C-1.55043823 20.1150177 0.89805542 20.10978088 3.42074585 20.10438538 C11.49133339 20.08784958 19.56192166 20.07678334 27.63252163 20.06844234 C32.52792186 20.06321352 37.42330479 20.05611588 42.31869507 20.04481506 C47.03894789 20.03398617 51.75918404 20.02797768 56.47944832 20.02537727 C58.28445765 20.02352303 60.08946603 20.01990242 61.89446831 20.01452446 C64.41366456 20.007314 66.93279102 20.00626358 69.45199585 20.00672913 C70.20581039 20.00313385 70.95962494 19.99953857 71.73628235 19.99583435 C76.88701595 20.00620236 76.88701595 20.00620236 78.00106812 21.12025452 C78.09493192 22.99206392 78.11850615 24.86743512 78.11459351 26.74159241 C78.11448021 28.54334679 78.11448021 28.54334679 78.11436462 30.38150024 C78.10920334 31.68876572 78.10404205 32.99603119 78.09872437 34.34291077 C78.0968601 35.68669584 78.09543624 37.03048159 78.09443665 38.37426758 C78.09061213 41.91707728 78.08078243 45.45984621 78.06973267 49.00263977 C78.05951711 52.61540678 78.05493872 56.22818036 78.04989624 59.84095764 C78.03916009 66.93407332 78.02208448 74.02716126 78.00106812 81.12025452 C77.34106812 81.12025452 76.68106812 81.12025452 76.00106812 81.12025452 C76.00106812 61.32025452 76.00106812 41.52025452 76.00106812 21.12025452 C48.94106812 21.12025452 21.88106812 21.12025452 -5.99893188 21.12025452 C-5.99893188 14.52025452 -5.99893188 7.92025452 -5.99893188 1.12025452 C-3.73222856 -0.01309715 -2.51504314 -0.0031836 0 0 Z " fill="#000860" transform="translate(143.99893188476563,158.87974548339844)"/>
<path d="M0 0 C36.96 0 73.92 0 112 0 C112 0.33 112 0.66 112 1 C75.7 1 39.4 1 2 1 C2 6.61 2 12.22 2 18 C44.9 18 87.8 18 132 18 C132 18.66 132 19.32 132 20 C129.47462372 21.26268814 127.74100804 21.12584895 124.91357422 21.12698364 C123.83670349 21.12980347 122.75983276 21.13262329 121.65032959 21.13552856 C120.4637677 21.13350433 119.27720581 21.1314801 118.0546875 21.12939453 C116.809151 21.13114685 115.5636145 21.13289917 114.28033447 21.13470459 C110.85891893 21.13835922 107.43756363 21.13749193 104.01615143 21.1343255 C100.44029152 21.13179869 96.86443423 21.13414034 93.28857422 21.13571167 C87.28287289 21.13753242 81.27718384 21.13512952 75.27148438 21.13037109 C68.32210493 21.12492865 61.37275482 21.12669138 54.42337608 21.1321975 C48.46326636 21.13673131 42.50316547 21.13737786 36.54305458 21.13475883 C32.98050073 21.13319754 29.41796068 21.13299827 25.85540771 21.13629532 C21.88536432 21.13971265 17.91535395 21.1349799 13.9453125 21.12939453 C12.75875061 21.13141876 11.57218872 21.13344299 10.34967041 21.13552856 C9.27279968 21.13270874 8.19592896 21.12988892 7.08642578 21.12698364 C5.67721359 21.1264181 5.67721359 21.1264181 4.23953247 21.12584114 C2 21 2 21 0 20 C0 13.4 0 6.8 0 0 Z " fill="#060E67" transform="translate(108,240)"/>
<path d="M0 0 C56.43 0 112.86 0 171 0 C171 1.65 171 3.3 171 5 C170.67 4.01 170.34 3.02 170 2 C114.56 2 59.12 2 2 2 C2 7.28 2 12.56 2 18 C1.01 18 0.02 18 -1 18 C-1.02690844 15.37493198 -1.04679404 12.75013827 -1.0625 10.125 C-1.07087891 9.37863281 -1.07925781 8.63226563 -1.08789062 7.86328125 C-1.11328125 2.2265625 -1.11328125 2.2265625 0 0 Z " fill="#000852" transform="translate(88,86)"/>
<path d="M0 0 C0.66 0 1.32 0 2 0 C2.10452045 5.77185149 2.08808374 11.3177849 1 17 C0 18 0 18 -1.85657597 18.12304783 C-2.67420634 18.12212604 -3.49183672 18.12120424 -4.33424377 18.12025452 C-5.26958954 18.12162918 -6.2049353 18.12300385 -7.16862488 18.12442017 C-8.20296158 18.12082489 -9.23729828 18.11722961 -10.30297852 18.11352539 C-11.38577087 18.11367142 -12.46856323 18.11381744 -13.58416748 18.1139679 C-17.18243374 18.11326823 -20.78064897 18.10547333 -24.37890625 18.09765625 C-26.86612418 18.09579226 -29.35334248 18.09436827 -31.84056091 18.09336853 C-37.73021191 18.0899335 -43.6198439 18.08204277 -49.50948709 18.07201904 C-56.87025374 18.05976246 -64.23102264 18.05437791 -71.59179688 18.04882812 C-84.72787398 18.03808815 -97.86393583 18.02120089 -111 18 C-111 17.01 -111 16.02 -111 15 C-74.37 15 -37.74 15 0 15 C0 10.05 0 5.1 0 0 Z " fill="#04165D" transform="translate(239,110)"/>
<path d="M0 0 C0.99 0.33 1.98 0.66 3 1 C3 20.47 3 39.94 3 60 C8.90777344 60.06058594 14.81554687 60.12117188 20.90234375 60.18359375 C24.63477331 60.2240667 28.36719516 60.26482898 32.09960938 60.30664062 C38.02984065 60.37304511 43.96007032 60.43835124 49.89038086 60.49731445 C54.6690407 60.54489396 59.44762642 60.59723418 64.2261982 60.65294075 C66.05351489 60.67339347 67.88085194 60.69210161 69.70820427 60.70907402 C72.25858834 60.73305374 74.80883097 60.76311664 77.35913086 60.79467773 C78.50387878 60.80331093 78.50387878 60.80331093 79.67175293 60.81211853 C84.88594784 60.88594784 84.88594784 60.88594784 86 62 C86.07205511 63.68608966 86.08386068 65.37500659 86.0625 67.0625 C86.05347656 67.98160156 86.04445313 68.90070313 86.03515625 69.84765625 C86.02355469 70.55792969 86.01195312 71.26820313 86 72 C85.67 72 85.34 72 85 72 C84.505 68.04 84.505 68.04 84 64 C82.96239029 63.98969254 81.92478058 63.97938507 80.85572815 63.96876526 C71.09917527 63.87120396 61.34268863 63.76848673 51.58624363 63.66066074 C46.56980702 63.60538761 41.55336463 63.55196074 36.53686523 63.50268555 C31.69985134 63.45510657 26.86291069 63.40276637 22.02598381 63.34705925 C20.1763382 63.32660629 18.32667248 63.30789819 16.47699165 63.29092598 C13.89547546 63.2669468 11.31409903 63.23688382 8.73266602 63.20532227 C7.96014999 63.1995668 7.18763397 63.19381134 6.39170837 63.18788147 C1.11405216 63.11405216 1.11405216 63.11405216 0 62 C-0.09396057 60.06693502 -0.11743517 58.13041162 -0.11352539 56.19506836 C-0.11344986 54.95385727 -0.11337433 53.71264618 -0.11329651 52.43382263 C-0.10818911 51.0691626 -0.1029731 49.70450298 -0.09765625 48.33984375 C-0.095792 46.95121817 -0.09436813 45.56259193 -0.09336853 44.17396545 C-0.08954387 40.51278885 -0.07971403 36.8516517 -0.06866455 33.19049072 C-0.05844932 29.45707737 -0.05387067 25.72365766 -0.04882812 21.99023438 C-0.03809171 14.66013823 -0.02101591 7.33007464 0 0 Z " fill="#00034D" transform="translate(125,127)"/>
<path d="M0 0 C15.84 0 31.68 0 48 0 C48 0.33 48 0.66 48 1 C124.23 1.495 124.23 1.495 202 2 C202 2.33 202 2.66 202 3 C176.25309092 3.02334229 150.50618342 3.04098573 124.7592659 3.05181217 C112.8050018 3.05697229 100.85074426 3.06400961 88.89648438 3.07543945 C78.47928257 3.08539493 68.06208553 3.0918555 57.6448791 3.09408849 C52.12715107 3.09539412 46.60943664 3.09847072 41.09171295 3.10573006 C35.90110906 3.11250387 30.71052442 3.11461416 25.51991653 3.11310768 C23.61232778 3.11338339 21.70473841 3.11538046 19.79715347 3.11920547 C17.19736639 3.12416393 14.59765246 3.12299027 11.99786377 3.12025452 C11.23910737 3.12316736 10.48035098 3.1260802 9.69860196 3.12908131 C6.32531172 3.11945452 3.22423737 3.0584962 0 2 C0 1.34 0 0.68 0 0 Z " fill="#00031F" transform="translate(70,295)"/>
<path d="M0 0 C0.33 0 0.66 0 1 0 C1 63.03 1 126.06 1 191 C-0.32 191.33 -1.64 191.66 -3 192 C-2.67 189.69 -2.34 187.38 -2 185 C-1.67 185 -1.34 185 -1 185 C-0.505 93.425 -0.505 93.425 0 0 Z " fill="#000E59" transform="translate(260,87)"/>
<path d="M0 0 C0.99 0.33 1.98 0.66 3 1 C3.02555123 7.90103354 3.04295062 14.80205468 3.05493164 21.703125 C3.05993138 24.0462286 3.06673335 26.38932912 3.07543945 28.73242188 C3.08769739 32.11849734 3.09327206 35.50453123 3.09765625 38.890625 C3.10281754 39.92237854 3.10797882 40.95413208 3.11329651 42.01715088 C3.11382818 49.05724258 2.685903 55.99407754 2 63 C1.34 62.67 0.68 62.34 0 62 C0 41.54 0 21.08 0 0 Z " fill="#000D59" transform="translate(125,127)"/>
<path d="M0 0 C0.88399947 0.00092179 1.76799894 0.00184359 2.67878628 0.00279331 C3.68985943 0.00141865 4.70093258 0.00004398 5.74264431 -0.00137234 C7.42038433 0.00402058 7.42038433 0.00402058 9.13201809 0.00952244 C10.30259258 0.00937641 11.47316708 0.00923038 12.67921352 0.00907993 C15.89807713 0.00965887 19.11689773 0.01468791 22.33575273 0.02165389 C25.6963417 0.02788826 29.05693143 0.02849129 32.41752529 0.0296793 C38.78529112 0.03279237 45.15303986 0.04100543 51.52079815 0.05102879 C58.76856499 0.06219068 66.01633263 0.06770057 73.26410592 0.07272422 C88.17703605 0.08318806 103.08995017 0.10078703 118.0028677 0.12304783 C118.0028677 0.45304783 118.0028677 0.78304783 118.0028677 1.12304783 C116.74800564 1.13335529 115.49314358 1.14366276 114.20025539 1.15428257 C102.31455067 1.25247811 90.42889294 1.355251 78.54326534 1.46238708 C72.43427575 1.51730911 66.3252812 1.57067614 60.2162466 1.62036228 C54.30934353 1.66846378 48.4024914 1.72081601 42.49565029 1.77598858 C40.2536895 1.79620693 38.01171486 1.81495073 35.76972866 1.83212185 C23.47920716 1.92727918 11.25997514 2.16377816 -0.9971323 3.12304783 C-1.3271323 4.77304783 -1.6571323 6.42304783 -1.9971323 8.12304783 C-2.3271323 8.12304783 -2.6571323 8.12304783 -2.9971323 8.12304783 C-3.03954953 5.79010007 -3.03806168 3.45602216 -2.9971323 1.12304783 C-1.9971323 0.12304783 -1.9971323 0.12304783 0 0 Z " fill="#000156" transform="translate(72.99713230133057,66.87695217132568)"/>
<path d="M0 0 C0.66 0 1.32 0 2 0 C2.10452045 5.77185149 2.08808374 11.3177849 1 17 C0 18 0 18 -2.5625 18.0625 C-3.366875 18.041875 -4.17125 18.02125 -5 18 C-5 17.67 -5 17.34 -5 17 C-41.63 16.505 -41.63 16.505 -79 16 C-79 15.67 -79 15.34 -79 15 C-52.93 15 -26.86 15 0 15 C0 10.05 0 5.1 0 0 Z " fill="#011059" transform="translate(239,110)"/>
<path d="M0 0 C1.14662109 -0.03867188 1.14662109 -0.03867188 2.31640625 -0.078125 C4.4375 0.25 4.4375 0.25 7.4375 3.25 C-18.9625 3.25 -45.3625 3.25 -72.5625 3.25 C-72.5625 2.92 -72.5625 2.59 -72.5625 2.25 C-67.33355975 2.0756247 -62.10440516 1.90971536 -56.875 1.75 C-56.09172333 1.72599121 -55.30844666 1.70198242 -54.50143433 1.67724609 C-42.14620725 1.30624383 -29.81347697 1.16220844 -17.45239258 1.28710938 C-16.33501709 1.29548828 -15.2176416 1.30386719 -14.06640625 1.3125 C-12.60956421 1.32990234 -12.60956421 1.32990234 -11.12329102 1.34765625 C-7.32230562 1.20270495 -3.83163692 0.07779973 0 0 Z " fill="#061A5B" transform="translate(212.5625,175.75)"/>
<path d="M0 0 C0.33 0 0.66 0 1 0 C1 5.28 1 10.56 1 16 C2.98 16 4.96 16 7 16 C7 16.33 7 16.66 7 17 C12.28 17.33 17.56 17.66 23 18 C23 18.33 23 18.66 23 19 C19.37501666 19.02893932 15.75006287 19.04677792 12.125 19.0625 C10.57619141 19.07506836 10.57619141 19.07506836 8.99609375 19.08789062 C8.00996094 19.09111328 7.02382812 19.09433594 6.0078125 19.09765625 C4.64100342 19.10551147 4.64100342 19.10551147 3.24658203 19.11352539 C1 19 1 19 -1 18 C-0.505 9.09 -0.505 9.09 0 0 Z " fill="#000853" transform="translate(109,242)"/>
<path d="M0 0 C0.66 0 1.32 0 2 0 C2.10452045 5.77185149 2.08808374 11.3177849 1 17 C0 18 0 18 -2.5625 18.0625 C-3.366875 18.041875 -4.17125 18.02125 -5 18 C-4.505 16.515 -4.505 16.515 -4 15 C-2.68 15 -1.36 15 0 15 C0 10.05 0 5.1 0 0 Z " fill="#010F49" transform="translate(239,110)"/>
<path d="M0 0 C0.99 0.495 0.99 0.495 2 1 C3.33070829 6.3922614 3.03352411 11.60270744 2 17 C1.34 16.67 0.68 16.34 0 16 C0 10.72 0 5.44 0 0 Z " fill="#041C61" transform="translate(208,190)"/>
<path d="M0 0 C1.43739513 -0.02712066 2.87493863 -0.04645067 4.3125 -0.0625 C5.51326172 -0.07990234 5.51326172 -0.07990234 6.73828125 -0.09765625 C9 0 9 0 12 1 C12 1.66 12 2.32 12 3 C4.61538462 3.36923077 4.61538462 3.36923077 1.5 1.5 C1.005 1.005 0.51 0.51 0 0 Z " fill="#000734" transform="translate(115,106)"/>
<path d="M0 0 C0.99 0.33 1.98 0.66 3 1 C2.74438677 3.3431213 2.40729228 5.67843403 2 8 C1.01 8.495 1.01 8.495 0 9 C0 6.03 0 3.06 0 0 Z " fill="#000F4B" transform="translate(125,127)"/>
</svg>
